<svg width="162" height="270" viewBox="0 0 162 270" fill="none" xmlns="http://www.w3.org/2000/svg">
<path d="M96.6642 170.375C96.6121 171.506 96.7261 172.64 96.9186 173.751C97.1111 174.862 98.0373 176.761 97.5344 177.614C97.3311 177.959 94.6772 180.141 94.2971 180.285C93.4288 180.614 93.0447 179.718 92.7952 179.051C92.0311 177.011 92.3542 174.466 92.5438 172.338C92.1411 171.885 90.1845 174.841 90.0195 175.208C89.4665 176.432 89.4734 176.914 89.9606 178.158C91.1923 181.302 96.4255 183.966 99.5028 184.899C101.795 185.594 101.088 185.084 102.763 184.026C103.933 183.287 106.146 182.482 106.834 181.427C107.295 180.721 107.345 179.987 108.035 179.293C109.814 177.505 115.59 176.626 117.038 179.134C118.849 182.273 116.649 186.329 114.108 188.309C110.779 190.903 106.779 190.301 102.933 189.682C102.628 189.906 102.708 191.027 102.791 191.421C103.244 193.578 107.355 196.898 109.159 198.196C110.108 198.878 113.521 201.142 114.468 201.334C115.613 201.565 115.66 200.703 116.279 200.091C118.53 197.868 121.451 195.931 124.044 194.11C124.292 193.642 123.596 192.682 123.45 192.145C122.684 189.33 123.617 187.445 125.698 185.576L129.034 183.521C126.73 182.591 122.359 181.454 123.697 178.081C124.169 176.89 126.068 176.049 127.263 175.763C131.037 174.86 132.49 177.491 135.209 179.396C135.77 179.413 137.232 177.9 137.966 177.638C138.494 177.449 141.121 176.95 141.74 176.891C141.974 176.868 142.359 176.901 142.37 177.141C142.406 177.877 138.68 180.795 137.866 181.262C137.861 181.486 139.53 182.486 139.235 183.125C138.114 183.572 137.131 182.155 136.246 182.376C135.849 182.475 132.352 184.954 131.797 185.399C130.41 186.508 128.088 188.441 128.683 190.443C128.739 190.631 129.158 191.102 129.327 191.114C129.625 191.137 132.795 189.057 133.333 188.701C136.247 186.777 141.852 181.748 145.044 181.383C147.633 181.087 147.519 181.736 145.909 183.228C145.052 184.023 143.808 184.933 142.858 185.669C139.686 188.124 135.108 190.508 132.301 192.965C132.121 193.122 131.803 193.207 132.171 193.429C133.053 193.961 134.882 193.98 135.84 193.562C138.355 192.463 141.201 188.213 143.487 186.691C144.97 185.704 147.309 185.424 149.045 185.483C149.75 186.103 144.093 190.731 143.645 191.165C141.847 192.914 139.6 195.019 138.065 196.964C137.545 197.623 136.317 199.113 137.405 199.77C138.68 200.541 140.526 199.241 141.497 198.434C145.304 195.271 147.959 189.977 153.361 189.406L150.024 197.447C149.024 197.579 149.75 195.09 149.145 195.098C147.473 196.988 145.832 199.003 143.949 200.688C142.304 202.16 140.021 204.084 137.764 204.312C133.659 204.726 130.678 201.979 131.978 197.842C131.249 197.84 130.538 197.889 129.812 197.752C128.018 197.412 127.737 195.906 125.635 196.892C124.229 197.552 120.021 200.794 119.256 202.089C119.135 202.294 119.002 202.489 119.031 202.743C122.941 204.127 124.116 199.552 126.782 197.865L127.663 199.13C128.057 199.382 129.275 198.522 129.585 199.548C129.927 200.678 128.471 204.674 128.646 204.904C129.812 204.201 131.101 203.05 132.54 203.753C133.362 205.067 129.758 205.875 128.973 206.312C126.976 207.424 125.849 209.586 129.231 209.221C128.487 213.659 124.228 211.635 125.459 207.899C125.786 206.906 127.22 205.972 127.423 204.955C127.639 203.874 127.004 202.839 127.073 201.765C126.826 201.455 126.167 202.755 125.997 202.944C124.359 204.771 123.103 205.946 120.5 206.077C118.92 206.156 117.898 205.175 118.294 207.505C118.932 211.253 124.676 213.568 127.479 215.393C127.68 215.52 127.884 215.533 128.111 215.47C128.338 215.407 131.706 212.47 131.751 212.232C131.026 210.719 130.337 209.538 130.619 207.76C130.862 206.231 134.09 205.91 135.366 206.126C136.427 206.306 137.506 207.41 138.6 206.912C140.658 205.4 142.587 203.671 144.667 202.19C146.166 201.123 149.371 199.514 150.464 198.43C151.548 197.356 151.278 195.86 153.613 196.318L157.087 197.546L151.596 204.118L151.03 202.427L150.729 202.167L140.811 208.635L140.931 209.037C144.405 210.903 147.092 213.832 151.163 214.463C152.23 214.628 156.532 214.589 157.003 215.293C157.178 215.875 157.19 218.04 156.709 218.351C154.691 218.623 152.43 218.722 150.61 219.708C148.636 220.777 148.397 222.439 151.01 221.58C151.152 223.503 147.622 225.366 146.984 222.957C146.391 220.717 149.503 218.853 150.959 217.712C151.118 217.587 151.32 217.717 151.206 217.264C146.334 217.055 142.485 213.596 138.261 211.574L144.295 222.115C146.14 224.822 149.643 226.462 149.442 230.212C149.216 230.441 144.612 229.941 144.005 229.664C142.842 229.135 142.333 227.923 141.499 227.07C139.477 225 137.258 223.408 134.533 222.364C133.66 229.877 143.503 230.743 148.459 233.352L146.491 234.224C144.611 235.076 143.337 237.386 144.57 239.299C145.772 241.165 151.678 241.154 151.973 242.311C152.005 243.301 150.728 243.215 150.04 243.658C148.988 244.333 147.595 246.543 148.835 247.589C150.568 249.052 151.553 245.193 152.329 244.964C152.993 244.768 153.745 245.124 154.445 245.138C154.906 245.148 156.39 244.633 156.505 245.222C156.613 245.768 153.43 248.917 152.76 249.321C148.773 251.717 142.703 249.036 144.579 243.886C144.78 243.337 145.292 242.968 145.322 242.375C140.254 242.623 136.058 238.878 139.437 233.941C135.972 232.991 131.243 232.214 130.271 228.096C129.664 225.525 130.505 223.285 131.59 220.993C130.372 220.785 128.963 219.733 127.767 219.61C126.047 219.435 124.42 220.756 122.762 220.203L124.719 217.949C119.609 215.168 112.846 211.865 113.847 204.904C111.302 203.612 108.719 202.386 106.298 200.866C102.122 198.245 95.6967 193.965 98.5402 188.225C93.1597 186.145 84.1714 182.007 85.7312 174.84C86.6063 170.821 90.5342 169.734 93.6164 167.816L94.1163 164.101C91.0479 165.491 87.6544 166.09 84.307 165.668C84.2048 166.522 84.7794 167.437 84.198 168.209C83.6558 168.927 80.2485 168.473 80.6659 170.379C81.8298 171.459 84.5378 170.727 85.3825 169.588C85.5328 169.386 86.3559 166.619 86.6643 168.321C87.1082 170.774 82.0823 173.3 80.1169 171.724C78.9412 170.78 79.501 169.108 80.5942 168.33C81.4104 167.75 82.702 167.882 82.9339 167.044C81.3741 166.775 80.3801 167.445 79.0718 167.989C78.8547 168.079 78.7084 168.36 78.5178 168.026C78.0886 167.273 79.1091 165.922 79.8163 165.593C80.2406 165.395 80.9625 165.46 81.1678 165.084C76.9758 163.716 74.4033 159.894 76.0112 155.51C76.9433 152.969 79.8389 152.425 82.0548 151.551C82.4084 151.818 82.2944 151.784 82.206 152.087C82.0125 152.753 81.4124 153.357 81.1354 153.964C79.8389 156.805 80.0609 158.889 82.7561 160.65C87.9166 164.024 95.7684 161.219 99.4095 156.738C101.201 154.533 101.489 151.913 102.909 149.643C104.726 146.736 107.328 147.398 109.616 145.07C109.233 148.39 106.926 151.435 105.069 154.156C102.175 158.396 98.4243 162.189 97.4549 167.433C101.394 166.717 105.233 168.455 109.028 169.197L100.789 161.84C100.712 161.448 100.877 161.601 101.039 161.505C101.486 161.241 102.051 161.111 102.46 160.767C103.139 160.197 103.761 158.94 104.828 158.805C105.868 158.672 108.742 160.269 110.008 160.667C113.005 161.61 117.178 162.194 120.316 162.146C122.173 162.118 125.717 160.876 127.222 161.698C127.821 162.025 127.918 162.493 127.786 163.125C127.343 165.243 122.774 166.543 121.289 168.02C120.974 167.019 122.141 166.036 122.293 165.092C122.33 164.86 122.245 164.765 122.047 164.709C121.392 164.523 118.705 165.21 117.756 165.273C114.917 165.462 112.382 164.954 109.618 164.492L115.309 169.49C117.959 172.2 121.454 175.231 121.189 179.399C120.128 178.545 118.793 178.531 117.585 178.001C116.158 177.375 114.541 176.041 113.083 175.245C110.149 173.644 103.096 170.374 99.9045 170.374H96.6671L96.6642 170.375ZM128.782 177.867C128.552 177.935 128.355 178.132 128.286 178.361C127.69 180.366 132.354 182.415 133.543 180.478C132.718 179.643 129.888 177.536 128.782 177.867ZM113.337 184.303C113.666 183.139 114.537 181.899 113.946 180.656C113.264 179.762 110.834 180.458 110.204 181.263C111.13 182.169 112.03 183.083 112.891 184.053C113.007 184.183 112.881 184.43 113.336 184.303H113.337ZM104.905 186.264C106.247 186.195 107.824 186.663 109.124 186.675C109.383 186.677 109.95 186.651 110.006 186.36C110.08 185.977 108.014 183.314 107.586 183.351C107.127 183.391 104.535 185.918 104.904 186.264H104.905ZM138.646 220.989C138.762 220.866 137.178 218.378 136.962 218.064C136.534 217.44 134.3 214.482 133.798 214.345C133.015 214.132 130.692 216.18 130.017 216.774L138.646 220.989Z" fill="#0D0D0D"/>
<path d="M6.81132 19.9068C7.19144 19.8175 7.18849 20.0452 7.36332 20.2376C11.4582 24.7304 15.2181 29.5599 18.5861 34.6191C18.8876 34.6937 18.8994 34.571 19.0605 34.411C19.6871 33.7916 20.3767 32.5911 21.0328 31.8706C21.6241 31.2208 22.3087 30.6475 22.9049 29.9997L23.2968 29.985C24.0678 30.6377 26.9123 32.9769 26.8229 33.9202C26.7237 34.9725 22.7654 37.0417 22.7045 38.7369C25.8594 40.0641 28.9749 39.9443 31.1063 37.0388C33.7838 33.3892 32.3911 28.9229 33.1965 24.808C33.4489 24.4703 33.4794 24.7422 33.6905 24.9091C34.8731 25.8426 36.1117 27.4387 37.8089 27.0686C34.5411 23.1903 31.7379 18.9301 28.2982 15.1961C26.4035 13.1397 20.9807 8.83041 20.1173 6.70131C19.3984 4.9305 19.8453 3.08116 20.1557 1.2701C20.4601 1.2112 20.6094 1.30151 20.8501 1.45661C21.6476 1.96998 23.6572 4.25516 24.4744 5.0905C30.741 11.4974 35.5695 17.8906 40.5287 25.3312C40.6564 25.5226 40.7438 25.7572 40.7556 25.9879C44.1167 21.9103 43.0923 15.9824 43.7209 11.0056C43.8633 9.87778 44.488 6.54229 45.097 5.71186C46.1627 4.2581 49.6633 3.04975 51.4244 3.25392C56.8501 3.88313 57.6742 11.7664 54.3671 15.1765C52.0491 17.5657 49.5886 16.3358 47.0329 15.1991C47.1164 19.8283 47.191 24.3692 45.4633 28.7334C47.2274 28.5852 48.7429 28.5341 50.4186 27.903C58.2183 24.965 61.0157 13.9004 63.316 6.76414C61.9272 6.50598 60.3301 6.28708 59.0964 7.14991L58.896 6.9634C58.7163 4.55357 57.2518 2.68165 56.6458 0.484817C57.3088 0.389602 57.8048 0.573162 58.4069 0.781262C60.0295 1.3447 61.6168 3.0576 63.208 3.04091C63.7757 3.03502 63.8837 2.7376 64.6331 2.98496C65.5869 3.29908 66.3068 4.34252 66.4375 5.30744C67.1289 10.4039 63.3936 19.7949 61.1296 24.488C60.719 25.34 60.1052 26.0772 59.7859 26.9685C60.3183 26.5798 60.8114 26.0811 61.2583 25.5982C66.7911 19.6241 71.9771 13.2947 77.5365 7.34819C78.5786 6.23309 80.0008 4.60853 81.0685 3.62202C81.2178 3.48362 81.5399 3.22349 81.7609 3.32165C89.3672 11.7703 96.3527 20.7677 103.825 29.3263C111.98 38.6663 120.621 47.6028 128.942 56.7857C138.566 67.4057 149.484 79.1335 161.064 90.7141V96.987C140.798 75.2733 107.135 40.1171 87.3448 16.5743C85.2832 14.1222 83.3511 11.5534 81.2659 9.11999C75.4709 15.5092 70.1286 22.2951 64.3964 28.7373C56.2176 37.9281 47.4965 46.6536 39.2793 55.8041C35.0676 60.4942 31.1299 65.4346 26.9251 70.1306C20.303 77.526 7.23488 89.3668 0.865234 96.987V90.4151C6.17303 85.4063 16.6718 74.7157 21.628 69.3463C28.476 61.9273 34.6944 53.9371 41.7339 46.684C40.7055 46.2334 37.9131 47.4163 37.2108 46.6958C36.2846 45.7456 36.1844 42.1814 36.8189 40.9848L41.9126 40.5215C42.3261 42.2334 41.7771 43.9571 43.4017 45.2106L55.6656 31.582L53.2464 32.8905C50.6131 33.986 48.0475 34.1087 45.313 33.2979C44.5872 33.0829 42.9587 32.1553 42.5874 32.1199C42.167 32.0797 41.063 32.6235 40.4393 32.6382C38.7676 32.6775 37.1627 31.636 35.654 31.0912C38.0074 40.0533 30.3972 50.0813 21.7262 42.2717C21.4875 45.7387 21.4119 49.2872 21.52 52.7749C21.5327 53.192 21.7105 53.5719 21.7223 53.9459C21.8392 57.6603 22.5542 62.6606 21.5828 66.162C20.3934 70.4496 14.9676 73.1765 10.9504 70.7991C9.69116 70.054 6.81427 66.7146 6.81427 65.3227V60.5168L8.01551 63.7295C9.1313 66.1472 13.0631 68.2812 15.5117 66.7617C18.7442 64.7553 17.9948 57.2215 17.7993 53.9469C17.487 48.7306 16.3388 43.4575 17.5587 38.2717L6.81132 24.3211V19.9068ZM51.3291 11.8479C53.0607 8.21789 48.6575 6.25567 48.0151 10.4775C48.7626 10.4923 50.7948 12.2219 51.3291 11.8479Z" fill="#0D0D0D"/>
<path d="M18.5834 202.255C18.6384 201.899 19.1934 200.709 19.4065 200.331C22.1783 195.416 28.7552 197.909 29.9054 202.704C31.0113 207.319 27.6139 211.696 25.285 215.37C26.338 216.621 27.992 217.672 29.6687 217.671C33.8195 217.671 35.2329 212.556 36.6315 209.512C34.7889 209.211 32.9944 210.133 31.3983 210.953L31.028 210.81C30.1509 208.481 30.2236 206.448 31.8236 204.508C33.2105 202.828 39.532 197.096 41.5888 197.293C42.5896 197.388 43.727 198.971 43.8793 199.912C44.2486 202.188 42.956 202.949 42.3235 204.902C43.4 204.56 46.8485 203.679 47.1491 202.554C47.4634 201.379 43.6632 197.64 42.7173 196.759C40.9916 195.152 39.0085 193.782 37.2788 192.172C36.8241 192.056 35.6317 193.196 35.1219 193.485C31.4651 195.555 28.3751 194.405 25.8439 191.367C26.5757 194.206 22.6203 197.391 20.095 196.817C18.659 196.492 17.3448 193.802 17.2093 192.447C16.8734 189.107 19.5921 188.346 21.092 185.941C21.1057 184.695 18.6689 183.699 19.1177 182.598C20.1383 180.096 21.7049 184.269 22.4062 184.107C23.2106 183.269 22.4681 181.259 23.8795 180.969C24.1938 182.109 24.3549 182.982 24.2518 184.185C24.1025 185.94 23.3982 185.616 25.0552 187.151C27.053 189 30.3984 190.253 33.0622 189.459C33.3254 189.381 33.5788 189.525 33.4914 189.114C31.2618 187.382 29.2709 185.313 27.0019 183.636C25.8675 182.797 24.3028 182.718 25.3685 180.789C25.9402 179.753 28.5421 180.325 29.1785 180.87C29.428 181.083 29.3936 181.663 29.594 182.025C30.3739 183.43 34.1495 185.472 35.4539 186.659C36.0029 182.524 31.7765 180.989 29.1157 178.972C28.6884 178.648 27.8683 178.146 27.6325 177.709C27.0285 176.592 27.0461 174.197 27.0216 172.926C28.4301 174.212 29.5803 175.811 31.0477 177.04C32.3913 178.166 37.987 182.24 39.3709 182.842C42.1634 184.057 44.2948 181.027 41.8304 178.813C41.1625 178.213 35.279 174.77 34.4206 174.452C33.9472 174.276 33.512 174.35 33.0917 174.211C31.1518 173.573 32.0869 169.718 31.5319 168.22C31.8698 168.132 31.9248 168.356 32.1222 168.511C32.9483 169.163 33.6918 170.053 34.6062 170.735C38.3612 173.538 47.3553 176.292 47.428 181.665C47.4496 183.266 46.1443 184.197 46.7965 185.811C48.2383 189.379 53.2407 191.629 56.8838 190.526C59.6801 189.68 63.8005 184.169 65.5498 181.732C66.1333 180.919 68.3864 177.906 68.4346 177.143C68.5073 175.968 66.4554 173.554 65.5714 172.733C63.6316 175.98 56.4064 175.843 53.4323 174.47C52.1416 173.874 48.6902 170.48 47.4211 169.299C46.434 168.38 42.8519 164.387 42.0249 164.1C41.5495 163.935 41.8107 164.792 41.4355 164.883C39.089 164.055 39.1087 160.194 40.2864 158.419C40.8423 158.249 42.3618 159.579 42.8185 159.972C47.3986 163.92 53.1406 172.554 59.9895 171.464C60.8961 171.319 61.6721 170.839 62.5285 170.568L53.0875 164.613C51.5445 163.764 49.9238 162.01 48.477 161.181C47.4437 160.589 47.6402 161.395 47.5223 161.35C46.765 161.003 46.9919 159.973 46.7896 159.629C46.5686 159.255 45.6954 159.114 45.6453 157.916C45.6217 157.345 46.2317 154.517 46.5509 154.103C46.7022 153.907 46.7611 153.845 47.0273 153.898C47.7571 155.214 49.3237 156.431 50.5839 157.308C51.572 157.996 52.6799 158.796 53.8978 158.999C53.6719 159.668 51.5641 159.571 51.348 159.784C51.3804 159.982 51.5936 160.139 51.738 160.274C54.1788 162.543 59.4238 165.976 62.3517 167.905C62.724 168.151 64.0922 169.104 64.4006 168.826C65.5803 166.791 63.0069 167.562 62.1347 166.553C61.7929 166.158 60.2302 162.51 60.3745 162.332C61.6878 163.131 66.0959 164.928 67.249 163.617C67.8511 162.933 67.5309 161.542 67.6567 160.69C68.2293 156.82 69.7164 153.466 71.3567 149.972L60.1742 159.492C59.4542 158.967 57.0144 153.746 57.0203 152.815C57.0321 150.77 60.6672 147.492 61.1132 145.318C61.6887 142.509 59.6615 139.898 60.6633 136.825C61.5945 133.971 64.0981 136.561 65.98 136.811C68.2784 137.116 69.9992 135.952 70.8066 133.824C71.1602 132.892 71.4804 129.355 71.943 129.072C73.4016 128.179 72.7602 130.971 73.8525 131.293C77.4719 132.361 77.5456 124.263 78.7183 123.686C79.0444 123.525 79.0366 123.913 79.0994 124.08C79.4854 125.098 79.5552 127.679 81.4764 126.444C83.7188 125.002 78.7674 121.467 79.6004 120.547C81.5815 121.062 84.9996 123.391 85.7244 125.309C85.9818 125.99 85.9307 126.842 86.2961 127.484C86.6084 128.034 87.5327 128.492 88.0307 129.085C88.839 130.049 89.341 131.235 88.9088 132.503C88.6868 133.154 87.8048 133.418 87.679 133.824C87.2429 135.239 88.3705 137.248 85.9582 137.998C85.2775 138.209 84.8886 137.939 84.4584 138.041C84.2865 138.082 83.211 138.752 83.154 138.922C82.8731 139.766 84.8228 142.964 84.4564 145.12C84.2885 146.107 82.77 148.243 82.0539 148.994C81.8958 149.16 81.3899 149.766 81.1689 149.579C81.4911 147.601 82.1777 145.412 81.9547 143.4C81.717 141.256 78.9531 138.052 80.6936 136.059C81.8899 134.69 84.5045 135.635 85.0448 135.014C85.7068 134.252 84.0733 132.198 84.9308 131.172L86.5711 130.755C86.964 130.212 86.2647 128.099 85.7559 128.014C83.9309 129.203 82.1718 129.713 79.9932 129.178C80.668 132.001 78.9128 135.665 75.5939 135.241C75.1421 135.184 74.2876 134.602 74.0037 135.061C74.8091 139.891 70.9618 142.913 66.3503 141.347C65.4712 141.049 64.8112 140.336 63.9066 140.36C63.9635 141.228 64.5597 141.971 64.6737 142.827C65.1697 146.564 61.9333 148.961 61.8439 152.521C66.4142 148.945 71.1003 145.433 75.5733 141.727C76.6783 140.811 77.7214 139.828 78.7173 138.793C79.8106 139.873 80.2781 142.658 79.9009 144.093C79.6053 145.215 76.365 149.26 75.5183 150.697C74.6638 152.147 73.6914 153.964 73.0903 155.527C71.7702 158.957 71.4225 162.687 70.179 166.142C73.5794 167.16 75.813 169.322 74.7551 173.082C73.105 178.95 64.7287 191.933 59.1713 194.577C53.4225 197.313 45.8486 192.243 45.2642 186.07L43.2507 187.289C41.5691 187.96 40.25 186.596 38.7924 186.069V189.306C41.0535 191.514 43.7143 193.276 46.0539 195.385C48.9613 198.006 51.3313 200.063 50.743 204.395C50.1802 208.534 43.6986 208.623 40.6095 209.465C38.2227 214.535 36.8928 223.318 29.4771 222.556C27.4155 222.344 25.7231 220.678 24.3716 219.226C23.3521 218.13 23.2695 216.626 21.4289 218.045L23.1949 219.225C25.0699 222 24.4001 225.511 20.6441 225.891C18.1178 226.146 16.9304 224.851 16.286 228.006C15.4364 232.163 15.9707 243.193 9.65315 243.552C9.14142 243.581 6.81554 243.214 6.81554 242.666V238.841C7.34593 238.88 7.51978 239.327 8.10224 239.419C9.98514 239.718 11.04 238.141 11.4653 236.526C12.5271 232.495 12.3179 227.803 13.8767 223.811C13.9012 223.241 12.6145 222.139 12.2236 221.564C10.3888 218.865 10.7071 216.526 12.202 213.722C14.0535 210.248 14.5043 212.958 16.4412 214.011C17.8752 214.791 19.2778 214.687 20.5361 213.613C20.6333 213.198 16.893 207.603 16.3145 206.88C14.7292 204.897 12.6135 202.823 9.85155 203.132C9.21508 203.204 8.18867 203.719 8.18867 204.412V208.434C7.73292 208.543 7.86552 208.348 7.73882 208.186C7.45201 207.819 6.89706 206.808 6.82733 206.363C6.68687 205.462 6.65642 200.939 6.81849 200.1C7.011 199.106 9.38206 198.471 10.2562 198.427C12.9367 198.296 14.8363 200.62 16.509 202.369L18.5864 206.08C18.716 204.899 18.4096 203.386 18.5864 202.255H18.5834ZM69.2027 175.28C69.5641 175.355 69.5887 175.183 69.7419 174.94C69.904 174.685 71.1897 171.841 71.2653 171.559C71.6611 170.103 70.2743 168.52 68.9237 168.203L67.0487 171.258L69.2027 175.28ZM22.7028 187.64C22.3276 187.548 22.3256 187.778 22.1508 187.969C21.7019 188.462 19.3957 191.201 19.9565 191.759C21.9416 191.954 23.3589 189.435 22.7028 187.64ZM21.9278 211.763C22.2451 211.828 22.3689 211.773 22.6016 211.569C22.9503 211.264 24.6672 208.676 25.0208 208.103C25.8125 206.819 28.8947 201.4 25.3813 201.579C21.1882 201.793 20.1284 208.805 21.9288 211.763H21.9278ZM35.8487 205.492H38.595C38.8121 204.551 40.0496 203.792 39.6715 202.742C38.0872 203.059 36.5844 204.038 35.8487 205.492ZM15.4423 220.989L16.8086 218.737L15.347 215.888C14.7498 217.034 14.3776 218.76 14.7498 220.018C14.8019 220.194 15.2066 220.925 15.4423 220.989Z" fill="#0D0D0D"/>
<path d="M6.81163 102.891C9.04715 103.266 11.4015 103.216 13.5702 102.506L13.8364 102.939L13.6901 104.45C16.0857 104.864 18.5058 104.905 20.9368 104.852L18.1807 98.6786C18.3929 97.2945 21.4417 99.5404 21.7324 97.3102C21.9151 95.9105 21.7079 94.4616 20.4192 93.6989C19.3456 93.0638 16.8695 93.2906 16.8381 91.8113C16.8292 91.4059 17.6395 89.6233 17.9941 89.4486C19.0608 88.9224 21.6676 91.2194 21.0468 88.1656C20.5066 85.5094 17.6533 86.3065 15.8382 87.1958C15.6466 86.1416 16.4815 84.1842 17.5531 83.9104C19.5824 83.3921 25.452 85.3955 25.952 87.774C26.451 90.1475 26.2074 92.7183 23.2931 92.8871C23.7823 93.6135 24.6771 93.9178 25.2546 94.5529C27.551 97.0786 26.948 100.814 23.4935 101.721C24.0121 103.472 24.3156 104.686 26.3272 104.86C28.6786 105.063 31.0546 104.509 33.3883 104.452C36.2416 104.383 38.6215 104.792 41.3413 105.54C45.4872 106.68 50.7096 109.946 52.8724 104.122C54.5697 99.5512 53.1671 94.0906 51.4934 89.6979C51.2214 88.9843 50.3963 86.7521 49.9779 86.3084C49.3895 85.6861 44.6189 84.6368 43.4629 84.3874C39.1077 83.4471 34.5513 82.6559 30.0999 83.2831L26.4303 76.9017C26.56 76.6799 26.7093 76.6651 26.9313 76.6131C30.3611 75.8102 38.8366 78.594 42.4718 79.6895C45.5186 80.6073 48.5399 81.636 51.5406 82.6843C50.245 77.1295 50.2441 71.2879 50.7587 65.6162C47.0234 66.0383 42.5789 65.1765 41.9807 60.7602C41.0122 53.6132 49.0241 54.9786 53.6071 53.6348C57.2128 53.8173 56.1147 59.9946 56.0872 62.3494C57.0223 63.1141 58.5103 63.7659 58.4082 65.2236C56.93 64.8889 56.1373 65.1519 55.5686 66.6017C54.4617 69.4268 55.1728 72.5189 54.6827 75.4244C54.9056 75.662 56.1746 74.0119 56.4448 73.7557C60.1988 70.1895 67.8679 62.6753 72.0826 60.3578C72.5491 60.1006 73.3437 59.4881 73.8103 59.9249C74.71 60.7671 75.0498 64.24 74.8023 65.4317C74.2817 67.9426 70.1613 73.5947 68.912 76.6092C67.4072 80.2362 65.5076 86.9268 71.8272 86.1946C72.6925 86.0944 74.763 85.0078 75.2796 85.3278C75.702 85.5899 77.2745 88.6692 77.2568 89.265C77.2107 90.8032 73.1129 91.7887 71.8458 91.9016C65.8956 92.4327 59.7686 90.0238 54.4862 87.5904C55.9536 90.4714 57.2128 93.5546 57.7639 96.7684C58.9327 103.587 58.5585 112.045 49.4868 111.324C48.6146 111.254 47.7041 110.739 46.8358 111.031C49.4475 113.998 51.5808 117.808 53.4117 121.327C54.386 123.201 56.1403 126.175 56.0362 128.266C55.8004 132.978 51.2341 134.668 47.2306 135.267C47.6471 137.099 47.5164 139.141 46.1482 140.554C45.4459 140.553 44.7712 136.389 44.4608 135.673C41.3442 135.889 38.8082 135.519 36.2416 133.688L36.3399 133.298C38.764 133.626 41.1105 133.838 43.4845 133.087C43.9834 132.375 41.2833 128.402 40.8187 127.602C39.6352 127.58 38.5027 127.394 37.3103 127.406C29.7777 127.483 15.3795 129.424 8.83695 126.271C6.89414 125.335 6.55528 125.042 6.82244 122.715L15.2488 121.922L14.8559 123.882C16.6504 123.936 18.4538 123.998 20.2493 124.082C25.4275 124.323 30.5566 124.28 35.7417 124.48C36.7386 124.518 37.8053 124.516 38.7895 124.375L27.8712 110.574C27.5363 110.508 27.3831 110.416 27.4086 110.837C27.555 113.251 28.9291 115.693 27.7681 118.06C26.3056 121.044 22.6105 119.853 20.2169 118.817C16.6554 117.276 13.6017 114.232 17.5099 110.942L21.5252 108.388C18.9773 108.433 16.3077 108.268 13.7794 108.584C12.868 108.698 11.101 108.944 10.438 109.559C7.16916 112.585 15.1447 113.209 14.465 116.036C12.8061 115.903 11.1785 116.102 9.95569 117.311C10.3692 117.962 12.7314 118.406 12.1225 119.281C11.2709 120.508 9.48325 119.79 8.44309 119.213C7.03165 118.428 5.83139 116.898 7.53258 115.678C7.9068 115.41 10.0765 114.71 9.75434 114.274C9.13751 114.097 8.40478 113.666 7.88617 113.296C6.36375 112.209 6.74091 111.57 6.91182 109.761L8.77606 108.681C8.33013 108.589 6.81262 106.538 6.81262 106.327V102.895L6.81163 102.891ZM52.1299 58.5555C51.6879 58.1727 46.6806 59.6549 46.0598 60.4147C45.9606 61.4287 50.5259 61.9274 51.3451 62.0864L52.1299 58.5555ZM65.2748 86.8022C64.1659 83.5943 64.2062 80.1017 65.268 76.8909C65.9977 74.6853 67.4946 72.7976 68.0191 70.5223C66.2659 71.6904 64.5755 73.0224 63.0128 74.4408C61.2733 76.0202 55.826 81.0804 54.9046 82.812C54.3831 83.7926 54.9685 83.7867 55.8603 84.1548C58.808 85.371 62.1868 86.0031 65.2739 86.8041L65.2748 86.8022ZM49.973 127.609H45.4607L46.6384 132.121C47.9457 131.752 49.1273 130.458 49.8561 129.357C51.4924 126.884 51.0288 126.312 49.9445 123.812C48.3297 120.088 43.07 111.128 39.5163 109.325C37.8613 108.485 33.8991 108.404 32.023 108.582C31.8168 108.602 30.7501 108.688 30.9436 109.069C35.8458 113.236 39.3729 118.77 43.1996 123.887C44.6229 124.603 46.1875 124.786 47.6265 125.542C47.8877 125.68 50.3992 127.245 49.972 127.61L49.973 127.609ZM23.0928 112.307C21.6548 112.961 20.5155 114.112 21.5605 115.706C21.976 116.34 22.5368 116.701 23.2931 116.329C24.2449 115.861 23.358 113.136 23.0928 112.307Z" fill="#0D0D0D"/>
<path d="M126.088 69.5339C125.224 69.8549 124.433 69.1904 123.742 68.7555C123.356 70.7168 123.611 72.7516 123.551 74.7472C123.29 83.508 123.631 92.2423 123.532 101.038C123.36 102.021 125.93 102.883 125.917 103.38C125.878 105.019 123.205 103.943 125.227 106.799C126.064 107.98 129.352 111.799 130.408 112.603C130.604 112.752 130.655 112.985 130.996 112.895L130.809 84.5407L129.239 76.1215L133.054 70.3221L133.45 70.3241L137.427 81.8432C137.411 83.0761 135.19 81.694 134.624 81.5154L134.331 81.9973C134.255 93.5842 134.396 105.148 134.532 116.717C134.605 117.099 138.873 121.828 139.528 122.511C139.765 122.759 141.575 124.707 141.786 124.469C141.562 115.951 142.084 107.375 141.797 98.8593C141.778 98.3018 141.61 97.8326 141.583 97.3074C141.434 94.449 141.723 91.4718 139.818 89.06C141.475 87.0899 143.243 85.1395 144.144 82.6845L144.627 82.8847L148.656 93.5695C147.756 93.7304 146.686 93.0315 146.005 92.4966L145.71 92.9815C145.84 105.098 145.551 117.164 145.328 129.266C148.097 133.196 150.513 137.094 152.185 141.637L152.575 140.456C152.752 127.317 152.851 114.014 151.491 100.921C151.585 99.679 152.775 98.3999 153.339 97.275C153.867 96.2218 154.265 94.9584 154.738 93.8659C155.007 93.8865 155.05 94.1525 155.138 94.3459C156.155 96.5781 157.326 100.199 156.886 102.587C156.76 103.277 156.074 103.972 155.938 105.17C154.566 117.196 157.248 130.339 155.91 142.416C155.016 150.479 147.18 157.712 139.318 158.98C139.05 159.023 138.551 159.166 138.651 158.705C142.275 154.94 147.816 153.046 150.503 148.387C151.22 147.144 151.808 145.884 151.584 144.393C151.325 142.665 147.379 136.403 146.099 134.971C145.966 134.822 145.317 134.054 145.124 134.279C144.855 139.97 145.08 146.03 142.606 151.281C142.389 151.742 142.083 152.415 141.758 152.788C141.608 152.96 141.502 153.293 141.295 152.918C141.088 152.543 141.163 147.777 141.192 146.924C141.371 141.506 142.12 136.1 141.784 130.653L134.627 122.704C134.489 124.947 134.479 127.23 134.52 129.481C134.632 135.655 136.946 150.561 126.439 149.137C119.165 148.152 121.149 139.865 120.61 134.956C120.578 134.658 120.593 134.469 120.307 134.282C118.154 137.786 114.362 138.409 110.638 137.082C109.592 136.709 109 136.267 108.594 135.201C106.313 129.2 116.125 127.712 119.531 125.251L118.872 121.088L122.073 116.627C122.688 116.625 123.145 122.904 123.358 123.676C124.327 123.813 124.979 122.982 125.7 122.508C125.934 124.143 124.224 124.848 123.634 126.127C123.915 128.413 124.324 130.707 124.524 133.004C124.699 135.029 124.543 141.497 125.814 142.7C126.717 143.554 128.492 143.073 129.417 142.407C130.245 141.811 130.831 140.751 131.1 139.776C132.118 136.094 131.136 131.294 130.99 127.519C130.883 124.726 131.121 121.909 130.959 119.115L123.148 109.953C122.997 109.846 122.731 110.372 122.661 110.542C122.144 111.803 121.978 113.376 121.358 114.732C121.265 114.936 120.342 116.802 120.013 116.426L120.167 107.148L116.284 103.181L117.66 97.0051L120.207 98.9653C120.05 96.9786 120.098 94.9741 120.009 92.9844C119.671 85.326 120.297 75.7946 119.2 68.4865C118.972 66.966 118.226 65.5457 118.483 63.9879L122.071 58.5566L126.087 69.5329L126.088 69.5339ZM119.751 127.635C118.815 128.132 113.113 130.83 113.341 131.821C113.651 133.175 119.444 131.516 120.211 130.652C120.638 130.171 120.368 127.575 119.751 127.634V127.635Z" fill="#0D0D0D"/>
<path d="M86.0695 221.186C85.8455 222.218 85.488 223.352 85.4703 224.415C85.4399 226.18 85.8269 228.319 85.8828 230.103C86.0479 235.352 86.149 240.568 86.6608 245.804C86.978 249.048 87.3454 255.954 90.3205 257.839C93.1856 259.654 97.9444 258.424 99.0749 255.081C100.205 251.739 97.9081 240.422 97.192 236.254C96.916 234.648 95.9554 231.725 96.0743 230.308C96.2688 227.99 100.12 224.069 101.081 221.774C102.654 226.123 104.519 230.701 105.742 235.16C105.86 235.588 106.667 238.057 105.985 238.052L103.142 235.113L104.904 251.496C105.227 259.275 105.125 266.587 95.595 267.294C87.1362 267.923 82.3587 263.161 81.6593 254.928C80.3343 258.676 78.7667 262.58 75.3437 264.895C70.5643 268.13 64.1553 267.444 60.3778 263.063C56.6188 258.703 57.3938 253.818 57.6236 248.453C54.1515 251.881 47.1818 255.27 42.7323 251.869C40.0686 249.834 39.9271 246.411 41.5056 243.614C43.5702 239.956 47.9587 238.217 51.7854 237.023C53.3491 236.535 57.2867 235.877 58.3161 234.922C59.6774 233.659 58.7768 230.963 59.2963 229.821C59.4515 229.48 61.6301 227.399 62.132 226.771C62.9669 225.727 63.5739 224.513 64.4893 223.539L63.7075 232.563C63.8774 232.76 68.0302 231.313 68.7236 231.204C68.9888 231.161 69.312 231.086 69.1961 231.481C68.7108 233.138 65.0796 236.165 63.51 237.024L62.9129 243.443C62.9914 248.367 61.8933 259.316 69.6341 258.404C79.0162 257.299 80.4709 245.519 80.1939 237.949C80.1065 235.558 79.5112 233.049 79.4012 230.698C79.2618 227.724 79.9906 227.011 81.8489 224.911C82.4834 224.193 84.7189 221.797 85.3731 221.373C85.6127 221.218 85.7669 221.13 86.0685 221.187L86.0695 221.186ZM58.7984 238.644C56.1474 239.831 53.185 240.203 50.4594 241.191C49.0941 241.686 44.2243 243.503 46.339 245.514C48.5863 247.65 56.4028 244.767 57.9821 242.436C58.7119 241.36 58.8563 239.922 58.7984 238.644Z" fill="#0D0D0D"/>
<path d="M146.104 0.0917969C140.605 5.57013 135.029 10.9748 128.841 15.6885C132.719 16.567 136.276 21.1168 132.867 24.6191C132.674 24.8164 130.907 26.2623 130.804 26.1828C130.039 22.8758 128.267 19.8721 124.808 18.9347C123.2 20.2215 120.292 23.0957 120.611 25.2866C121.145 28.9696 129.959 30.1887 132.762 28.735C131.897 30.8258 129.915 33.0825 131.29 35.403L137.668 30.1033L134.914 26.8699C134.914 26.5617 138.032 23.7092 138.4 23.6572C139.046 23.5659 141.244 25.8687 141.886 26.3762C143.938 24.5229 145.987 22.6167 147.875 20.5975C149.559 18.7953 152.811 14.1042 154.928 13.527C155.429 13.3906 155.991 13.2463 156.484 13.4514C156.845 16.9803 153.863 20.6584 151.509 23.0545C149.882 24.7104 147.783 26.0984 146.102 27.6523C145.847 27.8889 144.698 28.9392 144.745 29.1983C144.965 29.5075 145.268 29.7254 145.482 30.0425C148.073 33.8737 151.062 37.9925 153.444 41.8944C153.938 42.7032 156.978 48.318 156.683 48.7273L152.132 50.2851C147.798 45.0237 140.162 44.9403 134.339 42.3616C133.221 41.8669 131.742 41.2102 131.19 40.1137C130.66 39.7309 129.669 42.2193 129.663 42.7592C129.651 43.8792 130.545 45.7854 131.092 46.7867C134.223 52.5143 143.858 60.3083 150.714 59.5348C152.46 59.3375 152.171 58.3029 152.937 57.0494C153.913 55.4533 155.165 54.2449 156.894 53.4528V56.6901C156.894 60.5527 153.337 64.2661 149.535 64.6332C142.218 65.341 130.853 54.6317 126.997 48.9187C124.496 45.2132 123.625 41.8306 127.265 38.445C124.658 37.2867 124.057 34.8749 124.915 32.2678C121.196 32.5662 117.544 32.0577 115.722 28.412C113.723 24.414 115.869 21.5222 118.637 18.7315C116.41 19.0152 114.125 18.9523 111.87 19.1231C110.28 19.2429 108.548 19.6355 106.973 19.719C99.6502 20.1057 89.7918 18.5391 92.2493 8.72304C94.0408 1.56518 102.785 0.140877 109.028 1.16763C109.342 1.35905 109.14 1.5112 108.908 1.64175C108.086 2.10016 105.27 2.2101 104.081 2.50458C101.253 3.20348 98.667 4.73675 97.5522 7.551C96.7792 9.50341 96.8509 11.0298 98.5344 12.4463C102.562 15.8348 114.047 14.1739 119.333 14.4046C120.715 14.4654 122.201 14.9719 123.601 14.7648C129.297 10.1022 135.162 5.54853 140.12 0.0917969H146.104ZM139.433 32.4612C139.283 32.3198 137.964 33.4536 137.761 33.6322C136.984 34.3174 134.846 36.3179 134.33 37.0678C134.216 37.2337 134.057 37.2612 134.137 37.5586C138.231 39.5817 142.777 40.4671 147.28 41.0914L141.692 33.0442C141.463 32.7615 141.502 32.8754 141.293 33.0442C141.058 33.2327 140.367 34.4185 140.119 34.4185L139.431 32.4612H139.433Z" fill="#0D0D0D"/>
<path d="M161.064 269.732L121.014 229.2L81.3514 185.381C81.0331 185.382 80.7768 185.752 80.5666 185.97C77.0778 189.585 73.5143 193.918 70.1679 197.741C62.4733 206.53 55.0144 215.526 47.2195 224.23C35.5479 237.262 12.3598 256.538 0.865915 269.732L0.865234 263.46C12.1381 249.285 31.4393 235.191 43.4921 221.681C53.6511 210.294 63.3062 198.057 73.699 186.952C76.0671 184.421 78.7613 182.171 80.9673 179.499C81.1343 179.459 82.1273 180.288 82.3395 180.476C85.4197 183.217 89.0834 187.385 91.9504 190.484C98.1727 197.211 104.045 204.287 110.19 211.087C126.023 228.611 143.211 248.019 161.064 263.46V269.732Z" fill="#0D0D0D"/>
<path d="M111.378 259.537C111.947 262.951 116.98 263.401 119.027 260.909L123.343 255.321C123.019 257.25 123.827 259.577 125.888 260.131C128.631 260.869 128.843 257.798 128.622 255.831C127.513 245.986 110.298 230.51 103.43 223.149C95.8531 215.03 88.5818 206.624 80.8715 198.629C72.0591 208.393 63.7928 218.659 54.6857 228.155C50.0084 233.031 44.8341 237.625 40.258 242.566C37.3369 245.719 33.2813 249.705 36.2339 254.246C38.0402 257.023 41.3875 258.025 44.5768 257.674C47.1875 257.388 49.4908 254.452 52.3245 254.733C52.3922 255.032 52.2587 255.194 52.1428 255.432C48.5596 262.795 37.7052 268.043 30.651 262.183C22.2875 255.235 32.8541 245.692 37.7072 240.409C43.7723 233.806 50.199 227.511 56.1541 220.797L81.2594 192.152C83.3358 194.894 85.8424 197.249 88.132 199.799C93.485 205.76 98.6475 211.906 104.017 217.853C110.03 224.512 116.458 230.817 122.269 237.66C128.564 245.075 137.329 256.342 126.577 264.535C123.853 266.61 122.893 263.807 120.345 264.386C119.204 264.645 118.045 266.477 117.007 267.128C114.9 268.448 112.654 268.36 110.646 266.939C109.898 266.41 107.965 264.127 107.513 263.992C106.573 263.711 105.478 264.298 104.512 264.146C104.923 262.122 106.892 261.218 108.242 259.932C109.333 258.893 110.311 257.75 111.378 256.693C111.479 257.568 111.238 258.703 111.378 259.537Z" fill="#0D0D0D"/>
<path d="M105.295 51.4908L103.14 50.7075L103.538 71.9847C103.601 75.2937 103.183 85.0459 104.084 87.5255C104.635 89.0401 105.77 90.7019 106.445 92.2274C107.766 95.2114 108.95 98.3133 109.614 101.516L110.014 99.4667C109.652 87.7522 109.868 75.8199 109.022 64.1476C108.875 62.1186 107.97 58.2747 108.253 56.5068C108.351 55.8903 110.875 52.0474 111.411 51.427C111.586 51.2248 111.601 51.0157 111.966 51.1001C112.715 54.6447 115.383 58.4386 115.669 62.0146C115.686 62.2325 115.871 63.0629 115.403 62.8695C115.109 62.6811 113.401 60.6227 113.145 60.9103C113.188 63.0354 113.251 65.1675 113.332 67.2936C113.797 79.5568 113.992 91.9044 113.342 104.169C113.138 108.022 113.675 110.426 111.422 113.823C108.752 117.846 104.752 121.32 99.6076 120.938C99.4887 120.43 99.7598 120.596 99.9778 120.434C104.812 116.837 109.377 114.393 108.824 107.505C108.617 104.937 104.907 96.087 103.575 93.525C103.438 93.2629 103.391 93.0362 103.233 93.472C102.789 99.7906 103.165 106.433 101.033 112.459C100.564 113.784 100.028 115.436 99.0192 116.428C99.0536 114.435 98.9691 112.431 99.0094 110.436C99.1646 102.634 99.585 94.8119 99.1223 86.9944C95.8585 81.5927 91.2617 77.199 87.1453 72.4863C85.0463 70.0834 83.3814 67.2367 80.7589 65.3373L80.5664 64.5491L81.5575 57.1821C81.9248 56.8533 83.5415 59.1041 83.8028 59.3485C85.2643 60.7149 87.0981 61.9351 88.8111 62.9707C89.8542 64.4087 86.4538 64.4264 86.9999 65.5601L99.2107 80.133C99.1616 77.6839 99.2805 75.2201 99.2206 72.769C99.0781 66.8794 98.756 60.8092 98.2305 54.9264C98.0478 52.8758 96.9487 47.7381 97.2601 46.1057C97.3288 45.7445 99.2107 42.4296 99.5192 42.088C99.8197 41.7562 100.295 41.3145 100.78 41.5746C101.514 41.9683 105.757 51.0128 105.294 51.4918L105.295 51.4908Z" fill="#0D0D0D"/>
<path d="M60.8671 130.165C42.8524 147.924 18.2897 168.401 0.866217 186.74L0.865234 186.739L0.865591 192.047C21.1394 171.682 60.0234 136.005 79.7875 115.146C80.0065 114.914 81.0103 113.814 81.2578 113.876C88.7629 122.055 96.6933 129.834 104.518 137.706C121.35 154.643 144.087 175.222 161.065 192.047V186.739C142.437 168.628 113.542 142.489 95.2877 123.985L81.2657 108.977C74.5385 116.124 67.8595 123.272 60.8671 130.165Z" fill="#0D0D0D"/>
<path d="M88.8193 26.3849L90.4144 30.377L92.9053 34.9533C92.7619 35.8014 91.8298 35.6051 91.1707 35.6041C91.6156 39.0799 91.9466 42.5882 92.3749 46.0729C92.5605 47.5875 93.0575 48.7733 92.9122 50.392C92.4741 55.2548 85.4974 57.8914 81.9458 54.5392C81.0814 53.7235 80.5756 52.4023 79.8792 51.7014C79.7162 51.5375 79.6995 51.4246 79.4028 51.4943C77.8588 57.1729 69.0709 59.142 66.2893 53.5193C65.2894 51.4992 65.922 49.8423 65.4682 47.7662C62.5353 49.3397 59.1123 49.855 56.3788 47.5394C54.5814 46.0169 55.43 43.026 57.1665 41.7185C59.1005 40.2628 64.9034 39.3185 65.6695 38.4498C66.253 37.7882 65.5605 36.4483 65.7442 35.7945C65.863 35.3714 66.9837 34.1837 67.3197 33.6252C67.8628 32.7211 68.1162 31.6021 68.8048 30.8944L69.0975 36.3904C69.3371 36.7133 69.3902 36.4836 69.5876 36.2863C70.1494 35.7248 70.6788 33.7371 71.6296 34.0492C72.4222 34.3103 71.4558 36.0291 71.1935 36.5189C69.9274 38.8856 68.8362 38.7207 68.6024 41.9708C68.3431 45.5782 68.6427 52.5299 74.1028 50.2182C77.4512 48.8008 78.4854 44.1018 78.1977 40.8272C77.9806 38.3536 76.741 35.3037 76.7302 32.9214C76.7184 30.431 79.3547 28.033 80.2819 25.7949C80.5795 25.9765 80.5167 26.217 80.5746 26.483C81.2877 29.7204 81.6138 34.6794 81.7621 38.0473C81.9084 41.374 80.4616 50.7934 86.1496 50.1043C88.6729 49.7991 88.7613 48.2098 88.6179 46.1004C88.3822 42.6294 87.5149 37.423 86.8362 33.954C86.6997 33.2541 86.072 32.2882 86.0946 31.5736C86.13 30.4487 88.615 27.7414 88.8193 26.3839V26.3849ZM66.0575 40.5092C64.9349 40.6191 59.2832 42.5588 59.5975 43.9222C60.7025 45.2179 65.5379 44.7625 66.0172 43.1163L66.0565 40.5092H66.0575Z" fill="#0D0D0D"/>
<path d="M6.81114 139.185C10.1045 139.077 13.4342 139.328 16.7266 139.193C19.2823 139.089 25.0538 138.822 27.0771 137.576C28.5573 136.665 29.1506 135.378 27.2117 134.579C22.6414 132.696 15.0843 135.426 9.98172 134.544C9.2981 134.427 7.20402 133.71 6.90838 133.105C6.70702 132.693 6.58719 130.502 7.2551 130.311L13.9695 128.393C14.3535 128.942 12.4657 130.743 12.6975 130.945C17.7137 131.11 27.6321 128.778 31.5393 132.801C33.38 134.696 32.7847 138.043 31.0472 139.781C30.1357 140.693 28.849 140.521 27.9994 141.341C31.1778 141.553 32.9419 144.567 33.1079 147.513C33.4222 153.1 27.6517 153.927 23.2917 153.9C23.936 155.886 24.4949 157.705 23.7779 159.78C22.5599 163.299 17.7137 161.536 15.9516 159.374C14.4527 157.534 14.382 155.039 13.6012 152.896C11.3951 152.056 7.48297 153.041 6.82096 150.094C7.85621 149.216 9.16746 150.396 10.4404 150.382C10.9639 150.377 11.7271 150.197 12.2153 149.981C12.395 149.752 10.902 146.577 10.7537 145.932C10.686 145.635 10.7331 145.613 11.0307 145.656C12.343 145.848 14.1424 148.91 15.2012 149.727C18.3364 150.081 23.7641 150.972 26.4956 149.157C28.0829 148.103 29.2743 145.995 27.3983 144.593C24.4134 142.365 14.2376 142.896 10.2479 142.518C9.10264 142.409 7.93282 142.185 6.81212 141.932V139.185H6.81114ZM16.6215 153.312C16.8572 154.368 17.7991 159.024 19.5652 158.124C21.3312 157.225 18.7568 152.595 16.6215 153.312Z" fill="#0D0D0D"/>
<path d="M63.9687 111.258C66.0146 113.161 69.2913 112.378 71.1388 110.619C71.3982 110.372 73.2496 108.021 73.2948 107.852C73.5276 106.982 70.1881 104.953 69.4524 104.499C67.1923 103.107 63.3804 102.227 65.996 98.7904L69.7854 99.1614C69.9671 99.0034 67.9751 96.9891 68.3012 95.6306C68.3798 95.3037 68.7373 94.7825 69.0094 94.5606C71.1261 92.835 73.9097 95.7994 73.7083 97.9855C73.1465 97.7567 73.1995 96.8331 72.5935 96.6505C72.1859 96.5278 70.5348 96.4306 70.5957 97.0726C71.905 99.1811 74.828 100.336 75.0824 103.085C74.9754 103.206 73.3557 102.007 73.0591 101.873C71.9953 101.393 70.0702 100.823 69.2009 101.811C70.6212 103.559 72.3254 105.021 74.5658 105.596C75.6816 105.379 78.4701 99.1074 79.1684 97.8529C82.0021 92.7673 87.3139 84.3245 94.1982 86.0305C95.7295 86.4104 97.9306 88.14 97.855 89.8401C97.8432 90.1032 96.9818 92.5081 96.8659 92.5974C96.5771 92.8183 96.5585 92.6338 96.365 92.4963C95.8051 92.1007 95.5881 91.6443 94.8033 91.3106C90.1201 89.3218 86.3671 95.128 84.3407 98.5126C80.2331 105.373 77.2816 116.059 68.2561 117.739C65.9341 118.172 64.0905 117.617 62.1526 116.309C54.5031 111.148 61.5259 98.435 66.3525 93.476C66.8407 93.7989 66.5824 94.1366 66.4586 94.5597C66.1227 95.7072 65.1474 97.0853 64.6504 98.2436C63.1918 101.64 60.7097 108.224 63.9677 111.256L63.9687 111.258Z" fill="#0D0D0D"/>
<path d="M93.1348 147.425C93.4913 147.086 90.3139 141.537 90.3679 140.26C90.4111 139.237 91.3314 138.584 91.799 137.752C92.3176 136.83 92.6859 135.858 93.0385 134.867C93.6602 134.886 95.1984 137.907 95.4606 138.527C95.8987 139.56 96.211 140.645 96.4723 141.734C96.7532 141.792 96.6786 141.514 96.7287 141.311C97.1314 139.662 97.3072 138.716 98.4318 137.322C99.0388 136.57 101.183 134.708 100.746 136.883C100.429 138.46 98.1588 138.635 98.4181 141.055C98.5693 142.469 99.5466 141.133 100.196 140.756C99.9454 142.992 97.5449 143.747 95.6983 142.796L95.2946 143.02L96.4576 146.948C97.1137 147.417 102.071 146.586 103.097 146.305L106.278 145.169C103.879 147.876 100.317 148.777 96.8819 149.408C96.8996 152.052 97.1383 154.338 94.9027 156.159C91.7007 158.766 86.1954 157.726 83.8106 154.494C82.2607 152.395 83.2684 149.257 85.6258 148.255C86.2809 147.976 88.4732 147.427 89.1126 147.427H93.1348V147.425ZM94.114 149.976C93.1171 150.507 88.3534 150.031 88.0587 150.886C87.8446 151.506 88.1667 152.204 88.6136 152.632C90.5407 154.478 94.2388 152.576 94.114 149.976Z" fill="#0D0D0D"/>
<path d="M41.8881 166.877C42.3232 167.63 41.174 167.518 40.7517 167.727C45.0636 172.023 50.6759 174.31 53.8573 179.733C55.7343 182.932 56.2294 186.008 55.0704 189.602C54.8012 189.895 54.7128 189.583 54.6794 189.311C54.6038 188.706 54.7256 188.064 54.6254 187.4C53.4792 179.784 47.4641 175.748 41.5188 171.864C40.124 170.953 37.3463 169.771 36.4683 168.48C35.3436 166.826 35.5744 164.613 35.8475 162.727L41.8881 166.878V166.877Z" fill="#0D0D0D"/>
<path d="M113.928 27.9492L115.107 34.6202L119.819 32.7424C120.388 33.084 121.497 39.0355 121.188 39.329L115.515 40.0946L114.131 34.896C113.173 34.9186 110.087 35.378 109.523 34.6114C109.202 34.1736 108.232 29.5247 108.436 29.3244C110.366 29.293 112.105 28.4224 113.928 27.9492Z" fill="#0D0D0D"/>
<path d="M124.329 6.37145C119.822 6.39698 114.863 4.81954 112.164 1.07668C114.596 1.75694 116.919 2.77093 119.38 3.37364C120.327 3.60529 123.246 4.33364 124.027 4.2237C124.824 4.1118 124.424 3.14394 124.539 2.56185C124.67 1.90221 125.26 0.464163 125.9 0.196185C126.397 -0.0119148 129.648 0.0155701 130.203 0.201093C131.851 0.752754 131.835 2.83081 130.904 4.02248C129.765 5.47918 128.236 5.11893 127.079 5.88752C126.461 6.29783 125.112 8.61442 124.617 8.72436C123.555 8.61147 124.639 6.68949 124.327 6.37047L124.329 6.37145ZM126.683 3.82223C128.147 4.12358 130.168 1.96896 127.94 1.67055C126.474 1.47423 126.666 2.72676 126.683 3.82223Z" fill="#0D0D0D"/>
<path d="M81.3701 218.84C79.9999 221.909 77.0121 221.556 76.6555 217.949C76.4483 215.851 76.2774 212.4 78.0247 210.987C78.3076 212.856 77.4501 215.131 78.121 216.875C78.8233 218.701 80.6963 217.857 80.7543 215.971C80.8171 213.929 78.9676 212.101 81.0666 210.01C81.4742 210.008 82.2296 215.05 82.5596 215.772C83.0222 216.784 84.5289 217.939 84.4523 216.241C84.3511 214.003 82.3386 211.746 84.6939 209.613C84.7863 211.385 85.8588 213.103 86.0484 214.832C86.2694 216.857 85.5396 220.198 82.8729 219.577C82.2512 219.431 82.0331 218.706 81.3691 218.84H81.3701Z" fill="#0D0D0D"/>
<path d="M42.7128 95.9243C42.6235 95.0477 41.5617 91.0968 41.0431 90.5265C40.6404 90.0838 40.219 90.714 39.777 90.8308C38.0464 91.2892 36.4856 90.5363 35.8079 88.9009C35.6576 88.5377 34.8394 85.3377 34.8846 85.1502C35.1606 84.0126 39.3861 85.7461 40.1031 86.176C40.5284 86.4312 41.6658 87.5051 41.874 87.5601C42.2699 87.6651 42.7403 87.3716 43.1971 87.3804C44.6724 87.4099 46.016 89.0315 46.4403 90.3321C45.8697 90.3625 45.6772 89.697 45.2489 89.4673C44.6851 89.165 43.0989 89.058 42.9446 89.8688C42.8926 90.1446 43.9769 92.9883 44.0653 93.7883C44.25 95.4492 44.1695 97.6333 43.6499 99.2166L42.7128 100.929C42.595 99.3197 42.8729 97.5076 42.7128 95.9263V95.9243ZM37.2213 86.9996C37.347 87.8683 37.4384 88.842 38.4952 88.7822C40.3948 88.6732 37.4855 86.7257 37.2213 86.9996Z" fill="#0D0D0D"/>
<path d="M60.5131 54.2923L63.7092 59.9257C64.0196 59.8914 64.0088 59.6332 64.0795 59.4163C64.5078 58.1098 64.7258 55.803 66.7286 56.0032C67.3798 56.068 68.4867 57.187 68.6773 57.8005C68.8216 58.2648 68.9542 61.1252 68.417 60.711C68.1812 60.0317 68.138 58.9333 67.3356 58.7439C65.8092 58.7557 65.4654 64.3704 63.7662 64.8004C63.0354 64.9044 62.3734 62.3817 62.1092 61.8192C61.9255 61.4286 60.9433 59.3387 60.6654 59.3426L59.4612 61.3167C55.9841 60.0896 59.9051 56.3134 59.7833 54.043L60.5131 54.2943V54.2923Z" fill="#0D0D0D"/>
<path d="M95.0418 101.77C95.584 102.308 95.5035 103.552 95.4878 104.264L94.1176 103.285L93.3456 105.913C99.1907 108.694 92.2052 109.752 92.1738 111.812C92.163 112.525 93.4772 114.379 93.818 115.254C94.2148 116.272 94.701 117.993 94.7108 119.067C94.7128 119.251 94.6107 120.14 94.314 120.153C94.3376 117.151 90.0611 113.225 91.1297 110.401C91.447 109.563 92.548 108.77 93.1305 108.09C91.6611 106.787 90.9195 108.374 90.2899 109.558C89.7595 109.58 90.2477 108.063 90.3302 107.836C90.5001 107.369 91.5059 105.958 91.4843 105.827C91.2859 104.587 89.9658 103.567 89.3067 105.245C88.847 105.343 88.9983 104.841 89.0081 104.555C89.1112 101.585 91.5216 100.171 91.9597 104.069C92.4174 104.168 92.274 104.007 92.3967 103.816C92.9821 102.909 93.5017 100.241 95.0409 101.77H95.0418Z" fill="#0D0D0D"/>
<path d="M143.357 14.6094V17.6504C143.357 18.046 142.726 20.2684 142.524 20.7415C142.388 21.0585 142.184 21.7349 141.851 21.8448L136.366 20.7199C136.054 20.714 136.102 20.659 136.082 20.4009C135.984 19.0639 137.595 16.0799 137.275 14.4121L143.357 14.6094Z" fill="#0D0D0D"/>
<path d="M38.2021 139.186C38.7217 140.18 44.3812 141.602 44.4794 142.032C43.7909 143.586 41.6978 143.387 40.36 144.091C41.909 147.636 38.7767 147.581 36.496 146.089C33.0082 143.809 37.0411 142.288 39.3788 142.125C38.1442 141.078 34.3509 139.701 36.0717 137.545C37.1561 136.186 40.0477 137.766 39.7658 138.68C39.6509 139.051 38.5773 139.202 38.2021 139.187V139.186ZM39.5743 145.068C39.3542 143.906 37.8436 143.648 37.0284 144.383C37.709 145.278 38.5528 145.372 39.5743 145.068Z" fill="#0D0D0D"/>
<path d="M81.36 91.1203C80.3306 90.0082 77.9497 86.1927 78.2601 84.789C78.542 83.5149 82.9354 80.7693 84.1082 79.2518C84.5364 78.6981 85.666 76.0773 85.9695 76.0547C86.4125 76.2333 88.095 77.4103 88.0174 77.852C86.603 78.9926 85.9665 80.6221 84.889 81.9944C84.2752 82.7767 83.1564 83.6258 82.6958 84.3129C81.4592 86.1574 81.4896 88.9834 81.36 91.1203Z" fill="#0D0D0D"/>
<path d="M36.6293 102.694L36.2414 100.829C36.2836 99.0556 36.0901 97.0001 35.4615 95.3314C34.495 92.7655 34.272 94.4293 32.7201 94.7601C29.357 95.4757 28.1361 91.4344 30.1566 89.2563C37.3513 88.631 38.8442 97.4173 36.6293 102.694ZM33.2957 91.7122C32.67 91.5493 32.2438 90.9642 31.5316 91.1203V92.4946C31.8725 92.7027 33.4568 91.9429 33.2957 91.7122Z" fill="#0D0D0D"/>
<path d="M109.846 155.822C108.914 155.003 111.403 152.338 112.224 151.965C113.531 152.511 114.729 153.288 116.016 153.868C117.379 154.483 119.335 155.026 120.538 155.821C120.812 156.001 121.175 156.136 121.184 156.54L119.16 159.37C117.91 158.647 116.705 157.813 115.353 157.278C114.397 156.899 110.061 156.009 109.846 155.822Z" fill="#0D0D0D"/>
<path d="M157.089 23.0469L153.95 29.4155L157.204 30.4963L157.262 30.7593C156.601 31.6703 156.678 32.5459 156.676 33.6168C155.815 34.5925 150.477 32.0511 149.719 31.1039C148.361 29.4096 151.295 29.2074 151.504 28.9365C151.627 28.7775 151.769 27.8322 151.954 27.4248C152.942 25.2447 154.845 23.7428 157.089 23.0469Z" fill="#0D0D0D"/>
<path d="M36.6321 71.3056C36.9189 70.9748 37.8599 72.4139 38.0249 72.5591C38.8028 73.2423 40.7859 74.4477 41.3899 73.0146C42.0588 71.4283 38.0897 70.1601 38.3971 68.3628C40.1091 68.3431 40.9362 70.3064 42.7199 69.6448C43.6559 67.9161 39.8999 67.7257 39.9746 66.6921C42.3378 64.6454 46.3855 67.5785 45.0212 70.377C44.7422 70.9503 43.7698 71.4902 43.598 71.8956C43.4261 72.301 43.5322 72.8232 43.4104 73.2767C42.1119 78.1189 36.5349 75.1427 36.6321 71.3046V71.3056Z" fill="#0D0D0D"/>
<path d="M19.112 15.5336C18.6641 16.0882 17.4324 16.1275 16.8186 15.7868C17.018 16.634 16.2371 17.807 15.4523 18.0563C13.7511 18.5982 12.7817 16.2021 12.2041 14.9937L11.326 15.0035C11.1247 14.5373 10.8222 12.0891 11.6148 12.256C12.8161 13.1905 12.9938 15.1645 14.5703 15.5925L15.0241 15.2646C15.5122 12.5171 12.0165 12.097 12.5017 9.50949C14.5172 9.61845 15.526 13.6185 17.3401 13.7657C19.4863 13.9395 16.4689 11.4678 16.2233 11.1812C15.4818 10.3124 15.4356 9.2582 15.4445 8.13623C15.6399 8.09206 15.6988 8.15095 15.8393 8.23046C16.3942 8.5436 18.7447 11.4629 19.0118 12.1206C19.3458 12.9431 19.6748 14.8376 19.112 15.5336Z" fill="#0D0D0D"/>
<path d="M148.262 4.40953C148.814 5.97322 145.279 8.05226 145.851 9.25668C146.484 10.5868 148.116 8.87091 148.652 8.22993C149.432 7.29348 149.936 5.67874 151.405 5.68659C151.163 6.45813 150.812 7.31998 150.386 8.00318C149.901 8.78159 146.923 11.5762 148.259 12.3703C150.061 11.9257 150.189 9.82601 151.505 8.73055C154.16 6.51997 152.96 9.27534 152.151 10.5544C151.33 11.852 149.011 14.1755 147.379 14.0381C146.108 13.9321 145.702 12.5176 146.104 11.4731C143.591 11.7961 143.394 10.3836 144.374 8.46649C144.733 7.76465 145.892 6.87041 146.013 6.56316C146.152 6.21568 145.786 5.88291 146 5.39604C146.256 4.81002 147.629 4.34474 148.262 4.41051V4.40953Z" fill="#0D0D0D"/>
<path d="M112.753 3.81977C112.617 5.88114 113.044 7.87379 112.753 9.90375C112.546 10.1226 107.11 9.65246 106.763 9.32067C106.58 9.05564 106.473 8.75134 106.462 8.42742C106.446 7.95821 106.603 6.40924 106.672 5.8831C107.12 2.47203 107.782 3.56161 110.498 3.81879C111.237 3.88848 112.012 3.7756 112.752 3.81977H112.753Z" fill="#0D0D0D"/>
<path d="M116.871 115.251C117.709 115.308 118.285 117.001 118.256 117.7C118.193 119.264 114.612 120.998 115.143 122.762C115.298 123.277 116.275 123.534 116.086 124.274C114.342 124.545 112.091 123.562 112.009 121.573C111.966 120.566 113.16 119.911 113.141 119.267C112.723 118.47 111.928 117.902 111.701 116.973C111.274 115.226 113.265 112.685 115.124 113.957C115.771 115.779 113.154 115.685 114.366 118.051C115.249 119.776 117.264 116.276 116.873 115.252L116.871 115.251Z" fill="#0D0D0D"/>
<path d="M25.8391 20.8892C25.6869 23.2656 26.4628 25.6362 25.6417 27.9499C25.1349 27.9842 25.0759 27.463 24.5603 27.3658C23.7008 27.2038 22.5949 27.5582 21.7168 27.2667C21.3101 27.0193 20.4753 24.4524 20.3967 23.8782C19.6502 18.3979 22.5821 21.8197 25.8381 20.8892H25.8391Z" fill="#0D0D0D"/>
<path d="M20.1514 146.833C18.6369 145.093 20.5424 143.922 22.1846 143.54C24.2659 145.613 24.1206 149.258 20.4422 149.202C18.2342 149.169 13.2111 146.448 11.5168 144.974C11.0169 144.539 10.3922 144.045 10.5395 143.305C10.9147 142.927 12.9361 144.43 13.4066 144.654C14.3584 145.106 19.5012 147.309 20.1514 146.833Z" fill="#0D0D0D"/>
<path d="M37.6103 15.9836C37.5131 16.0563 35.9121 14.4573 35.8365 14.3277C35.4681 13.6975 35.974 11.7039 36.139 10.8823C36.7607 7.78922 37.8382 4.7806 38.4059 1.67383C39.1897 1.69542 41.1041 1.55505 41.0461 2.66623C40.9882 3.77839 39.5807 6.65056 39.1966 8.05425C38.4865 10.6477 38.1604 13.3569 37.6103 15.9846V15.9836Z" fill="#0D0D0D"/>
<path d="M139.579 47.4084C140.421 47.2445 141.682 48.3989 142.661 48.7532C144.139 49.2872 148.433 49.7819 149.261 50.9952C149.605 51.4997 148.894 52.5098 148.407 52.7179C147.069 53.2902 144.921 52.3694 143.597 51.9375C141.244 51.1709 138.889 50.1716 136.689 49.0398C136.695 48.8563 139.219 47.4791 139.579 47.4084Z" fill="#0D0D0D"/>
<path d="M13.6755 0.09375L11.877 2.90408C9.6484 6.29454 9.06595 10.2367 7.84212 13.9795C7.79202 14.1336 7.85881 14.5911 7.49834 14.4124C6.56917 13.952 6.71061 9.84108 6.81178 8.82413C7.09072 6.02656 9.32133 2.44665 10.9312 0.19191L13.6755 0.09375Z" fill="#0D0D0D"/>
<path d="M76.2162 21.1235C76.1572 21.0263 75.8518 21.0096 75.7702 20.8889C75.4049 20.349 76.2427 18.7087 76.555 18.1414C77.6924 18.8726 76.9656 23.0592 78.321 23.0513C79.8828 23.0425 78.9398 19.2182 79.0047 18.2395C79.0145 18.0874 79.1147 17.1588 79.4958 17.358C80.3591 18.1188 80.4829 22.1767 81.2952 22.4378C83.1565 22.4702 81.8393 20.8447 81.6448 19.92C81.4671 19.0749 81.5692 18.4643 81.7509 17.6437C81.8108 17.3728 81.581 17.0753 82.0466 17.1617C82.2283 17.2589 83.4511 20.2331 83.5081 20.6052C83.8941 23.1132 82.8716 26.0806 80.0861 23.8455C79.1942 25.3483 77.2936 25.9451 76.6415 23.9397C76.4283 23.285 76.3851 21.4032 76.2162 21.1244V21.1235Z" fill="#0D0D0D"/>
<path d="M76.2622 76.6013C75.886 76.2136 74.619 77.8155 74.3027 78.0757C73.1653 79.0102 72.0888 79.9015 70.5723 80.1311C71.4513 79.1093 72.6713 78.3486 73.511 77.2845C74.0788 76.564 74.9421 74.3299 75.5855 74.2415C76.3624 74.1345 77.6206 74.9836 77.7905 75.7601C77.9389 76.4403 77.6236 79.4784 79.1205 78.38C80.4415 77.4101 80.9945 73.6496 80.9729 72.0898C82.6044 73.3316 81.9374 76.1399 81.3128 77.8263C80.7087 79.4578 79.9288 80.9851 77.9369 80.9253C77.5204 80.9125 76.2622 80.4148 76.2622 80.0349V76.6023V76.6013Z" fill="#0D0D0D"/>
<path d="M131.979 166.65C132.305 166.995 130.805 168.364 130.514 168.616C129.88 169.161 126.951 170.75 127.075 171.45C128.413 172.616 129.285 170.612 130.223 170.288C132.171 169.615 133.106 171.825 131.724 173.061C130.751 173.931 130.038 173.074 129.405 173.221C128.828 173.355 128.604 174.192 127.565 174.122C127.185 174.097 125.368 173.142 125.11 172.834C124.433 172.028 124.429 170.79 124.948 169.916C125.76 168.55 127.459 168.531 128.751 168.03C129.847 167.605 130.878 167.051 131.979 166.65Z" fill="#0D0D0D"/>
<path d="M113.93 20.1055C113.028 21.4228 107.874 23.2122 107.346 24.2253C106.5 25.8488 110.4 25.4945 111.181 25.0086C111.553 25.3561 109.445 26.7244 109.205 26.856C107.087 28.0123 104.178 28.0535 103.94 25.0802C103.752 22.7205 105.189 22.3376 107.06 21.7683C109.238 21.1057 111.696 20.6031 113.929 20.1055H113.93Z" fill="#0D0D0D"/>
<path d="M71.7516 252.575C72.4009 249.844 73.3664 247.395 72.117 244.654C71.7075 243.754 70.3972 242.51 70.3628 241.684C70.3206 240.65 71.1918 239.048 71.8469 238.258C75.6736 242.422 76.1382 248.674 71.7507 252.575L71.7516 252.575Z" fill="#0D0D0D"/>
<path d="M6.81123 33.3449C9.03692 32.2239 10.0113 35.0834 10.1537 36.8866C10.192 37.3715 9.91796 37.8564 9.9877 38.2039C10.1056 38.786 11.7154 40.6137 11.7174 41.5826L9.9435 40.7914C9.10469 42.8881 8.47117 45.3539 6.81319 46.9784C6.19047 44.7561 8.0881 43.001 8.00756 40.9916C7.96042 39.8167 6.81123 39.6144 6.81123 39.426L4.75586 35.7795L5.52851 34.1064L6.81123 33.3449ZM8.57626 37.9546L7.89166 35.4102C6.31325 36.1425 7.20018 37.6934 8.57626 37.9546Z" fill="#0D0D0D"/>
<path d="M37.2222 50.7038C35.2902 50.9992 33.3267 51.3928 31.3643 51.2672C31.0382 51.0591 30.3319 46.8421 30.6374 46.1815C30.7386 46.0353 33.7049 45.8095 34.1734 45.7928C34.5574 45.7791 35.1251 45.73 35.4591 45.8968C35.9031 46.1177 36.681 49.9725 37.2222 50.7038Z" fill="#0D0D0D"/>
<path d="M136.292 151.149C135.394 150.59 133.078 150.546 133.54 152.033C135.231 152.855 137.038 152.611 138.726 151.942C139.849 153.253 137.165 154.293 136.203 155.077C135.65 155.528 133.66 158.208 133.531 156.348C133.468 155.447 134.083 155.121 134.53 154.485C131.441 154.316 130.332 152.178 132.49 149.794C134.001 148.125 137.754 148.199 136.293 151.148L136.292 151.149Z" fill="#0D0D0D"/>
<path d="M14.0702 62.4796C13.6115 62.5051 13.7225 62.5453 13.6793 62.1871C13.5644 61.232 13.7009 60.2769 12.6794 59.6467C11.4349 58.8791 9.96947 61.1731 8.99217 59.416C8.62875 58.7622 8.27417 54.4982 9.06681 54.4402C9.95179 54.9664 11.5813 55.7752 12.4977 55.1175C12.755 54.933 13.3109 53.7315 13.583 54.2361C14.3786 57.0572 14.7057 59.577 14.0692 62.4796H14.0702Z" fill="#0D0D0D"/>
<path d="M36.7808 194.162C37.3505 195.304 36.9812 196.175 36.4685 197.187C36.0432 198.027 33.2292 202.524 32.7086 203.04C31.6969 204.041 30.7392 203.019 30.7422 201.863C30.7461 200.638 34.013 195.7 34.9618 194.701C35.5423 194.09 35.8782 193.594 36.7798 194.162H36.7808Z" fill="#0D0D0D"/>
<path d="M116.873 197.646C115.053 197.769 113.247 197.411 111.563 196.742C111.566 195.348 111.517 193.918 112.015 192.593C113.427 192.068 114.914 192.475 116.354 192.574L116.644 192.873C116.531 193.23 116.873 193.832 116.873 194.017V197.646Z" fill="#0D0D0D"/>
<path d="M93.752 62.3089C91.3957 65.9182 89.0551 60.0365 89.6287 57.8926C89.6984 57.6315 89.8536 57.5039 90.0874 57.7729C90.7327 58.5101 90.6099 60.1268 91.6128 60.5636C93.092 61.2085 93.2501 59.8715 93.4259 58.7515C94.031 59.5329 94.1773 60.4801 95.1939 60.9042C95.6791 59.955 95.4404 58.887 95.739 57.7287C95.797 57.5049 96.0042 56.4212 96.3667 56.5949C96.8381 56.8207 96.4325 59.1618 96.46 59.8382C96.4943 60.7108 97.0473 62.6338 96.8303 63.3307C96.7753 63.5064 96.6102 63.7057 96.405 63.6281C95.7803 63.5143 94.2618 62.0085 93.751 62.3098L93.752 62.3089Z" fill="#0D0D0D"/>
<path d="M101.176 174.006C101.321 173.803 101.35 173.796 101.576 173.793C102.055 173.787 105.438 174.449 105.601 174.68L105.294 179.4C103.915 178.976 102.351 178.839 101.176 177.929V174.006Z" fill="#0D0D0D"/>
<path d="M15.2445 198.037C14.3409 198.191 14.279 197.14 13.5993 196.84C12.8165 196.496 11.5573 196.915 11.1035 196.38L11.5661 193.18C12.6996 192.75 15.3545 192.628 15.938 193.925C16.2326 194.579 15.3064 197.153 15.2455 198.037H15.2445Z" fill="#0D0D0D"/>
<path d="M30.352 53.8465C31.6299 59.7744 26.3092 60.2455 25.8456 54.3343C25.6953 52.4261 26.1639 50.4845 27.314 48.9434C27.2895 51.0057 25.9016 55.7714 29.2421 55.5829L30.352 53.8465Z" fill="#0D0D0D"/>
<path d="M26.6265 226.482C27.0568 226.758 26.4006 230.107 26.4291 230.8C24.9519 230.334 23.6082 230.927 22.1133 230.799C22.3166 229.771 22.0543 226.482 23.5856 226.482H26.6265Z" fill="#0D0D0D"/>
<path d="M22.1147 231.389V235.312L17.7988 236.096V232.369L22.1147 231.389Z" fill="#0D0D0D"/>
<path d="M9.31224 226.234C9.66092 225.869 9.72477 224.786 10.3406 224.521C10.5066 225.952 10.265 231.032 7.86151 228.963C6.18881 227.523 6.66518 221.125 7.40478 219.131C7.51676 218.828 7.62971 218.636 7.89098 218.439C8.10608 220.978 6.82823 224.133 8.67085 226.306C8.84274 226.507 9.17276 226.379 9.31126 226.233L9.31224 226.234Z" fill="#0D0D0D"/>
<path d="M31.7257 0.0943536C31.8701 0.23276 30.2937 2.41192 31.326 3.92752C31.8328 4.67157 32.9014 4.66274 33.5674 4.18862C33.973 3.90003 34.3659 2.71425 34.6164 3.96776C35.0348 6.06545 34.0438 7.5035 31.8348 7.14325C30.2897 6.89098 29.6209 4.2858 29.781 2.95475C29.8438 2.43155 31.0343 -0.565284 31.7248 0.0943536H31.7257Z" fill="#0D0D0D"/>
<path d="M83.2664 176.992C83.0306 177.273 80.3845 178.343 80.2009 178.213C80.307 177.428 77.9595 175.309 78.2355 174.906L81.4355 173.15C82.1152 173.973 84.1238 175.973 83.2664 176.991V176.992Z" fill="#0D0D0D"/>
<path d="M58.6055 177.241L62.4027 176.836C62.5176 176.853 62.7258 177.309 62.7258 177.34V180.479C62.7258 180.954 60.5866 181.131 60.0758 181.163C59.568 181.194 58.9306 181.299 58.6065 180.87V177.241H58.6055Z" fill="#0D0D0D"/>
<path d="M45.069 189.993C46.1328 190.567 46.7781 192.033 45.7585 192.94C43.6124 194.849 40.985 189.853 41.9309 188.033L42.8237 189.981C43.7185 191.579 45.5051 192.797 45.069 189.993Z" fill="#0D0D0D"/>
</svg>
