<svg xmlns="http://www.w3.org/2000/svg">
  <symbol id="logo" width="114" height="36" viewBox="0 0 114 36" fill="none"
    xmlns="http://www.w3.org/2000/svg">
    <mask id="mask0_338_1800" style="mask-type:luminance" maskUnits="userSpaceOnUse" x="0" y="0" width="114" height="36">
      <path d="M113.4 0H0V35.9599H113.4V0Z" fill="white"/>
    </mask>
    <g mask="url(#mask0_338_1800)">
      <path d="M47.7575 30.7818C47.7575 30.4877 47.7325 30.6165 47.6883 30.6933C47.598 30.8452 47.4846 30.9836 47.3654 31.1143C42.4603 36.3769 33.9302 33.9782 31.7717 27.2394C29.1327 19.0014 35.3314 11.7168 42.7083 13.2583C44.4766 13.6292 46.0988 14.5095 47.4365 15.7262L47.7595 16.0203V13.4197H51.9995V33.4669H47.7595V30.7837L47.7575 30.7818ZM37.5648 28.5637C40.6401 31.3911 45.5991 30.2763 47.1905 26.3937C49.0914 21.7577 46.0411 16.1587 40.7324 16.8602C35.3237 17.5733 33.8418 25.1424 37.5648 28.5637Z" fill="white"/>
      <path d="M13.8257 7.29785L11.4423 8.28964C-0.136208 14.7017 6.17201 32.5788 19.1748 30.4338C22.9747 29.8072 26.9688 26.9491 28.2027 23.1799C28.2758 22.9569 28.3142 22.9858 28.2988 23.1933C27.9221 28.3695 24.151 33.1074 19.4189 34.9545C8.78218 39.1061 -1.94872 29.7572 0.411581 18.5516C1.75703 12.1664 7.36946 7.53234 13.8257 7.29785Z" fill="#FBBA0E"/>
      <path d="M28.2149 20.3393C27.9285 23.3435 25.2568 26.1997 22.6448 27.426C22.837 27.0031 23.1041 26.6264 23.2983 26.1978C25.3741 21.5906 22.2257 15.8859 16.9035 16.895C12.748 17.683 11.2738 22.6612 12.8326 26.2497C12.773 26.3092 12.2464 25.8614 12.1657 25.7903C10.6549 24.4564 9.40748 22.5093 8.88276 20.5469C8.80396 20.2528 8.58868 19.4225 8.61559 19.1726C8.63866 18.965 9.1826 17.8887 9.32484 17.6388C10.3262 15.8647 11.8485 14.5712 13.5918 13.8197C17.0112 12.3416 20.9956 13.1508 23.6808 15.7321L23.8903 15.9339V3.81722L28.2149 0V20.3393Z" fill="white"/>
      <path d="M76.9398 6.03906H72.6094V33.467H76.9398V6.03906Z" fill="white"/>
      <path d="M99.2819 15.6873C100.985 13.2136 104.498 12.7389 107.268 13.2924C110.345 13.9075 112.31 15.9487 113.05 18.778C113.251 19.5526 113.334 20.3522 113.334 21.1518V33.4664H109.096L109.1 21.763C109.017 15.1184 99.4876 15.1799 99.0493 21.4362C99.0378 22.9739 99.0359 24.5115 99.0628 26.0473C98.7995 36.559 81.572 36.6513 80.8454 26.299C80.7647 25.1516 80.782 23.7773 80.7628 22.6106C80.7128 19.5449 80.8301 16.4907 80.7647 13.4212H85.0894V25.709C85.0894 25.9742 85.3777 26.9429 85.4891 27.2332C86.8577 30.7467 92.2625 31.208 94.1019 27.9213C94.3768 27.4292 94.8169 26.1664 94.8169 25.6244V13.4212H99.2819V15.6873Z" fill="white"/>
      <path d="M60.3109 6.03906H55.9805V33.5496H60.3109V6.03906Z" fill="white"/>
      <path d="M68.6273 13.4199H64.2969V33.5497H68.6273V13.4199Z" fill="white"/>
      <path d="M66.4915 11.0174C67.983 11.0174 69.1939 9.79688 69.1939 8.2919C69.1939 6.78692 67.9849 5.56641 66.4915 5.56641C64.998 5.56641 63.7891 6.78692 63.7891 8.2919C63.7891 9.79688 64.998 11.0174 66.4915 11.0174Z" fill="white"/>
    </g>
  </symbol>
  <symbol id="chevron" width="16" height="16" viewBox="0 0 16 16" fill="none"
    xmlns="http://www.w3.org/2000/svg">
    <path d="M14 11L8.35355 5.35355C8.15829 5.15829 7.84171 5.15829 7.64645 5.35355L2 11" stroke="white" stroke-width="2" stroke-linecap="round"/>
  </symbol>
  <symbol id="arrow-top" width="14" height="16" viewBox="0 0 14 16" fill="none"
    xmlns="http://www.w3.org/2000/svg">
    <path d="M6.53125 15.0605L6.53125 1.06055M6.53125 1.06055L0.53125 7.06055M6.53125 1.06055L12.5312 7.06055" stroke="#18191B" stroke-width="1.5"/>
  </symbol>
  <symbol id="check" width="16" height="16" viewBox="0 0 16 16" fill="none"
    xmlns="http://www.w3.org/2000/svg">
    <path d="M15.2073 5.68298L7.18235 13.708C6.99483 13.8954 6.74058 14.0006 6.47547 14.0006C6.21037 14.0006 5.95612 13.8954 5.7686 13.708L1.29235 9.20798C1.10515 9.02048 1 8.76636 1 8.50141C1 8.23646 1.10515 7.98234 1.29235 7.79485L2.54235 6.54485C2.72976 6.35822 2.98348 6.25344 3.24797 6.25344C3.51247 6.25344 3.76618 6.35822 3.9536 6.54485L6.50047 9.01485L12.548 3.04173C12.7354 2.8549 12.9893 2.75 13.2539 2.75C13.5186 2.75 13.7724 2.8549 13.9598 3.04173L15.2067 4.26298C15.3005 4.3559 15.3749 4.46647 15.4258 4.5883C15.4766 4.71014 15.5028 4.84083 15.5028 4.97285C15.5029 5.10486 15.4768 5.23557 15.4261 5.35746C15.3754 5.47934 15.301 5.58997 15.2073 5.68298Z" fill="white"/>
  </symbol>
  <symbol id="ai-mentor" viewBox="0 0 40 40" fill="none"
    xmlns="http://www.w3.org/2000/svg">
    <path d="M17.0125 8.0375L13.8188 11.2312C12.8625 11.4937 11.975 11.975 11.225 12.6375L9.5625 14.1187C8.925 14.6875 8.09375 15 7.2375 15H6V23C7.275 23.0375 8.4875 23.5562 9.39375 24.4625L11.6187 26.6875L12.0562 27.125L13.7437 28.8125C14.1312 29.2 14.7688 29.2 15.1562 28.8125C15.2625 28.7062 15.3438 28.5813 15.3875 28.45C15.5625 27.9688 15.9688 27.6062 16.4688 27.4937C16.9688 27.3813 17.4938 27.5312 17.8563 27.9L18.5312 28.5625C19.2563 29.2875 20.4312 29.2875 21.15 28.5625C21.4875 28.225 21.6688 27.7938 21.6875 27.35C21.7125 26.8 22.0375 26.3125 22.5375 26.075C23.0375 25.8375 23.6187 25.8875 24.0625 26.2062C24.65 26.625 25.4688 26.5688 25.9937 26.0438C26.5812 25.4563 26.5812 24.5062 25.9937 23.925L21.2563 19.1875L19.0187 21.25C17.3125 22.825 14.6938 22.85 12.9563 21.3062C10.975 19.5437 10.9312 16.4688 12.8562 14.65L17.2375 10.5125C18.95 8.9 21.2125 8 23.5688 8C25.825 8 28.0063 8.83125 29.6875 10.325L31.5688 12H39C39.55 12 40 12.45 40 13V26C40 27.1063 39.1063 28 38 28H36C35.2625 28 34.6125 27.6 34.2687 27H28.9625C28.75 27.4188 28.4688 27.8188 28.1187 28.1688C27.05 29.2375 25.5688 29.6562 24.1812 29.425C23.9562 29.8812 23.65 30.3062 23.2687 30.6875C21.5625 32.3937 18.8937 32.5625 16.9937 31.1938C15.425 32.4937 13.0875 32.4125 11.6187 30.9375L9.9375 29.25L9.5 28.8125L7.275 26.5875C6.93125 26.2437 6.48125 26.0438 6 26.0063C6 27.1063 5.1 28 4 28H2C0.89375 28 0 27.1063 0 26V13C0 12.45 0.45 12 1 12H7.2375C7.3625 12 7.48125 11.9562 7.56875 11.875L9.225 10.4C10.9688 8.85625 13.2125 8 15.5437 8H16.1875C16.4625 8 16.7438 8.0125 17.0125 8.0375ZM34 24V15H31C30.6313 15 30.275 14.8625 30.0063 14.6187L27.7 12.5688C26.5625 11.5563 25.0938 11 23.5688 11C21.9813 11 20.4562 11.6063 19.3 12.6938L14.9187 16.8313C14.275 17.4438 14.2875 18.475 14.95 19.0625C15.5312 19.5813 16.4125 19.5687 16.9813 19.0437L21.475 14.8938C22.0813 14.3313 23.0312 14.3687 23.5938 14.9812C24.1562 15.5938 24.1187 16.5375 23.5063 17.1L23.4562 17.15L28.1063 21.8C28.7313 22.425 29.1375 23.1937 29.3188 23.9937H33.9938L34 24Z" fill="white"/>
  </symbol>
  <symbol id="user" viewBox="0 0 40 40" fill="none"
    xmlns="http://www.w3.org/2000/svg">
    <g clip-path="url(#clip0_2212_976)">
      <path d="M25.6975 30.5671C25.8205 30.7557 25.8903 30.974 25.8994 31.199C25.9086 31.424 25.8568 31.6472 25.7496 31.8452C25.6424 32.0432 25.4836 32.2086 25.2902 32.3238C25.0968 32.439 24.8758 32.4999 24.6506 32.4999H1.5975C1.37234 32.4999 1.15137 32.439 0.957925 32.3238C0.764485 32.2086 0.605762 32.0432 0.498526 31.8452C0.39129 31.6472 0.339523 31.424 0.348694 31.199C0.357865 30.974 0.427634 30.7557 0.550629 30.5671C2.31017 27.8587 4.89827 25.7918 7.92875 24.6749C6.25344 23.5596 4.98152 21.9347 4.30109 20.0406C3.62067 18.1465 3.56785 16.0837 4.15046 14.1572C4.73307 12.2308 5.92016 10.543 7.53621 9.34338C9.15225 8.14378 11.1114 7.49609 13.1241 7.49609C15.1367 7.49609 17.0959 8.14378 18.7119 9.34338C20.328 10.543 21.5151 12.2308 22.0977 14.1572C22.6803 16.0837 22.6275 18.1465 21.947 20.0406C21.2666 21.9347 19.9947 23.5596 18.3194 24.6749C21.3499 25.7918 23.938 27.8587 25.6975 30.5671ZM39.4334 30.5436C37.6734 27.8467 35.0911 25.7887 32.0694 24.6749C34.0472 23.3426 35.4429 21.3068 35.9726 18.9817C36.5022 16.6566 36.126 14.2171 34.9203 12.1596C33.7147 10.1022 31.7704 8.58152 29.4831 7.90713C27.1958 7.23274 24.7374 7.45533 22.6084 8.52959C22.527 8.57162 22.4559 8.63104 22.4 8.70363C22.3441 8.77623 22.3048 8.86022 22.285 8.94967C22.2652 9.03912 22.2652 9.13183 22.2852 9.22125C22.3052 9.31066 22.3446 9.39459 22.4006 9.46709C23.9837 11.4418 24.8929 13.8715 24.9949 16.4004C25.097 18.9293 24.3866 21.4244 22.9678 23.5202C22.8761 23.6572 22.8422 23.8248 22.8735 23.9867C22.9049 24.1485 22.9988 24.2914 23.135 24.3843C24.9848 25.6753 26.5684 27.3109 27.7991 29.2015C28.2954 29.9615 28.4981 30.8763 28.3694 31.7749C28.3549 31.8643 28.36 31.9558 28.3843 32.043C28.4087 32.1302 28.4517 32.2111 28.5104 32.28C28.5691 32.349 28.6421 32.4044 28.7243 32.4423C28.8065 32.4803 28.896 32.4999 28.9866 32.4999H38.4084C38.6837 32.5 38.9513 32.4092 39.1697 32.2417C39.388 32.0741 39.545 31.8392 39.6163 31.5733C39.6597 31.3985 39.6659 31.2164 39.6344 31.039C39.6029 30.8616 39.5344 30.6929 39.4334 30.5436Z" fill="white"/>
    </g>
    <defs>
      <clipPath id="clip0_2212_976">
        <rect width="40" height="40" fill="white"/>
      </clipPath>
    </defs>
  </symbol>
  <symbol id="fact-check" viewBox="0 0 40 40" fill="none"
    xmlns="http://www.w3.org/2000/svg">
    <g clip-path="url(#clip0_2212_806)">
      <path fill-rule="evenodd" clip-rule="evenodd" d="M34.3929 26.0417C34.6479 26.0417 34.896 26.1265 35.1 26.2833C35.2768 26.4132 36.75 27.611 36.75 29.6667C36.75 30.9485 36.2533 32.1779 35.3692 33.0843C34.4851 33.9908 33.286 34.5 32.0357 34.5H15.5357C14.2854 34.5 13.0863 33.9908 12.2022 33.0843C11.3181 32.1779 10.8214 30.9485 10.8214 29.6667V10.3333C10.8214 9.69239 10.5731 9.0777 10.131 8.62449C9.68899 8.17128 9.08944 7.91667 8.46429 7.91667C7.83913 7.91667 7.23958 8.17128 6.79753 8.62449C6.35548 9.0777 6.10714 9.69239 6.10714 10.3333C6.10714 11.1576 6.75034 11.7279 6.81876 11.7886C7.01312 11.9426 7.16153 12.1603 7.23239 12.4014C7.30324 12.6426 7.29885 12.9004 7.21981 13.1388C7.14077 13.3773 6.99104 13.5844 6.79155 13.7314C6.59206 13.8783 6.35278 13.9576 6.10714 13.9583C5.85194 13.9595 5.60345 13.8746 5.4 13.7167C5.23058 13.5868 3.75 12.389 3.75 10.3333C3.75 9.05145 4.24668 7.82208 5.13078 6.91565C6.01488 6.00922 7.21398 5.5 8.46429 5.5H28.5C29.7503 5.5 30.9494 6.00922 31.8335 6.91565C32.7176 7.82208 33.2143 9.05145 33.2143 10.3333V26.0417H34.3929ZM18.4394 32.0833H32.0357C32.3455 32.0837 32.6523 32.0215 32.9387 31.9002C33.225 31.779 33.4852 31.601 33.7044 31.3766C33.9236 31.1521 34.0975 30.8856 34.2161 30.5922C34.3347 30.2988 34.3958 29.9843 34.3958 29.6667C34.3811 29.219 34.2125 28.791 33.92 28.4583H18.8932C19.0116 28.8496 19.0717 29.257 19.0714 29.6667C19.0726 30.5153 18.8545 31.3491 18.4394 32.0833ZM27.3921 13.9662C27.9409 13.424 28.834 13.418 29.3898 13.9525C29.9439 14.4878 29.9508 15.3613 29.402 15.9034L22.4756 22.7637C21.8586 23.3751 20.8484 23.3751 20.2297 22.7637L16.5977 19.1658C16.0489 18.6228 16.0559 17.7502 16.6117 17.2149C16.9176 16.9195 17.3283 16.7888 17.7268 16.823C18.0484 16.8512 18.363 16.9861 18.6077 17.2285L21.3535 19.9479L27.3921 13.9662Z" fill="white"/>
    </g>
    <defs>
      <clipPath id="clip0_2212_806">
        <rect width="40" height="40" fill="white"/>
      </clipPath>
    </defs>
  </symbol>
  <symbol id="burger-menu" width="48" height="48" viewBox="0 0 48 48" fill="none"
    xmlns="http://www.w3.org/2000/svg">
    <g clip-path="url(#clip0_1086_17344)">
      <path d="M8.8125 15C8.8125 14.6022 8.97053 14.2207 9.25184 13.9394C9.53314 13.6581 9.91468 13.5 10.3125 13.5L38.2499 13.5C38.6477 13.5 39.0292 13.658 39.3105 13.9393C39.5919 14.2206 39.7499 14.6022 39.7499 15C39.7499 15.3978 39.5919 15.7794 39.3105 16.0607C39.0292 16.342 38.6477 16.5 38.2499 16.5L10.3125 16.5C9.91468 16.5 9.53314 16.342 9.25184 16.0607C8.97053 15.7794 8.8125 15.3979 8.8125 15ZM38.25 22.5H10.3125C9.91468 22.5 9.53314 22.6581 9.25184 22.9394C8.97053 23.2207 8.8125 23.6022 8.8125 24C8.8125 24.3979 8.97053 24.7794 9.25184 25.0607C9.53314 25.342 9.91468 25.5 10.3125 25.5H38.25C38.6478 25.5 39.0294 25.342 39.3107 25.0607C39.592 24.7794 39.75 24.3979 39.75 24C39.75 23.6022 39.592 23.2207 39.3107 22.9394C39.0294 22.6581 38.6478 22.5 38.25 22.5ZM38.25 31.5H10.3125C9.91468 31.5 9.53314 31.6581 9.25184 31.9394C8.97053 32.2207 8.8125 32.6022 8.8125 33C8.8125 33.3979 8.97053 33.7794 9.25184 34.0607C9.53314 34.342 9.91468 34.5 10.3125 34.5H38.25C38.6478 34.5 39.0294 34.342 39.3107 34.0607C39.592 33.7794 39.75 33.3979 39.75 33C39.75 32.6022 39.592 32.2207 39.3107 31.9394C39.0294 31.6581 38.6478 31.5 38.25 31.5Z" fill="white"/>
    </g>
    <defs>
      <clipPath id="clip0_1086_17344">
        <rect width="48" height="48" fill="white"/>
      </clipPath>
    </defs>
  </symbol>
  <symbol id="close" width="48" height="48" viewBox="0 0 48 48" fill="none"
    xmlns="http://www.w3.org/2000/svg">
    <g clip-path="url(#clip0_1086_17336)">
      <path d="M34.3874 32.4255C34.312 32.2434 34.2015 32.078 34.0621 31.9386L26.1215 23.9999L34.0621 16.0611C34.3435 15.7796 34.5017 15.3979 34.5017 14.9999C34.5017 14.6018 34.3435 14.2201 34.0621 13.9386C33.7806 13.6571 33.3989 13.499 33.0008 13.499C32.6028 13.499 32.221 13.6571 31.9396 13.9386L24.0008 21.8792L16.0621 13.9386C15.7806 13.6571 15.3989 13.499 15.0008 13.499C14.6028 13.499 14.221 13.6571 13.9396 13.9386C13.6581 14.2201 13.5 14.6018 13.5 14.9999C13.5 15.3979 13.6581 15.7796 13.9396 16.0611L21.8802 23.9999L13.9396 31.9386C13.6581 32.2201 13.5 32.6018 13.5 32.9999C13.5 33.3979 13.6581 33.7796 13.9396 34.0611C14.221 34.3426 14.6028 34.5007 15.0008 34.5007C15.3989 34.5007 15.7806 34.3426 16.0621 34.0611L24.0008 26.1205L31.9396 34.0611C32.0789 34.2005 32.2444 34.311 32.4265 34.3864C32.6086 34.4619 32.8037 34.5007 33.0008 34.5007C33.1979 34.5007 33.3931 34.4619 33.5752 34.3864C33.7573 34.311 33.9227 34.2005 34.0621 34.0611C34.2015 33.9217 34.312 33.7563 34.3874 33.5742C34.4628 33.3921 34.5017 33.1969 34.5017 32.9999C34.5017 32.8028 34.4628 32.6076 34.3874 32.4255Z" fill="white"/>
    </g>
    <defs>
      <clipPath id="clip0_1086_17336">
        <rect width="48" height="48" fill="white"/>
      </clipPath>
    </defs>
  </symbol>
</svg>
